<?xml version="1.0" encoding="UTF-8"?>
<svg version="1.1" xmlns="http://www.w3.org/2000/svg" width="856" height="324">
<path d="M0 0 C282.48 0 564.96 0 856 0 C856 106.92 856 213.84 856 324 C573.52 324 291.04 324 0 324 C0 217.08 0 110.16 0 0 Z " fill="#FCFCFC" transform="translate(0,0)"/>
<path d="M0 0 C4.764352 -0.27516249 9.52394525 -0.4729283 14.29443359 -0.60424805 C15.91081381 -0.65904877 17.52666214 -0.73373178 19.14111328 -0.82983398 C33.9410453 -1.68773457 33.9410453 -1.68773457 40.25776672 3.59153748 C42.70617465 5.93126355 44.85265656 8.37578699 47 11 C47.89501221 12.08825073 47.89501221 12.08825073 48.80810547 13.19848633 C50.17127225 15.00015914 51.38197587 16.82509564 52.5625 18.75 C52.96017578 19.35714844 53.35785156 19.96429687 53.76757812 20.58984375 C57.34591239 26.17466495 59.75581886 32.14739733 62 38.375 C62.4640625 39.65503906 62.4640625 39.65503906 62.9375 40.9609375 C63.288125 41.96382812 63.63875 42.96671875 64 44 C64.24210205 44.65073486 64.4842041 45.30146973 64.73364258 45.97192383 C66.85440113 51.89805714 67.90561108 57.7037517 68.6875 63.9375 C68.81705078 64.84306641 68.94660156 65.74863281 69.08007812 66.68164062 C70.28278595 75.95330888 70 84.41558483 70 94 C177.25 94 284.5 94 395 94 C395 100.93 395 107.86 395 115 C335.27 115 275.54 115 214 115 C214.33 120.94 214.66 126.88 215 133 C217.64 131.68 220.28 130.36 223 129 C234.15527092 125.28157636 253.13237355 124.43705534 263.8984375 129.74609375 C264.59195313 130.15988281 265.28546875 130.57367188 266 131 C266.71414063 131.42410156 267.42828125 131.84820312 268.1640625 132.28515625 C276.88493694 138.14806622 281.27187703 146.86458228 283.63261414 156.92943954 C284.95821742 164.40044482 284.47529765 172.18385791 284.390625 179.73828125 C284.38314901 181.71509728 284.37746251 183.69192081 284.37347412 185.66874695 C284.35832463 190.82926504 284.31913696 195.9893207 284.2746582 201.1496582 C284.23347287 206.43239083 284.21541379 211.7151994 284.1953125 216.99804688 C284.1526307 227.33223255 284.08451147 237.66607757 284 248 C278.58543456 246.23719278 274.07203454 243.94824803 269.1875 241.0625 C268.41212891 240.61970703 267.63675781 240.17691406 266.83789062 239.72070312 C266.10119141 239.28822266 265.36449219 238.85574219 264.60546875 238.41015625 C263.93668701 238.01965088 263.26790527 237.62914551 262.57885742 237.22680664 C261 236 261 236 260 233 C259.29875 233.45890625 258.5975 233.9178125 257.875 234.390625 C246.11301733 241.99755945 236.80761965 246.3638863 222.625 246.3125 C221.74328125 246.32861328 220.8615625 246.34472656 219.953125 246.36132812 C208.56022374 246.36968069 196.1538666 242.59571315 187.63671875 234.7734375 C183.31023588 230.08555391 179.96388649 225.377342 179 219 C178.34 219 177.68 219 177 219 C176.35855143 204.63867933 177.99483096 195.01600055 188 184 C198.84057745 172.55040134 216.55252634 163.413143 232.39453125 162.7421875 C251.18018668 162.34951729 251.18018668 162.34951729 258.0625 167.125 C259.0215625 168.053125 259.0215625 168.053125 260 169 C259.63832251 162.01787885 259.63832251 162.01787885 256.26171875 156.19140625 C246.19428199 149.8020914 231.93551392 150.67455672 220.62109375 152.9765625 C213.03815624 154.74023057 205.95525853 156.82313621 198.93212891 160.22167969 C197 161 197 161 194 161 C193.67 161.99 193.34 162.98 193 164 C192.01 164 191.02 164 190 164 C190 158.39 190 152.78 190 147 C191.65 146.34 193.3 145.68 195 145 C195 135.1 195 125.2 195 115 C154.08 115 113.16 115 71 115 C71.33 124.24 71.66 133.48 72 143 C74.64 140.69 77.28 138.38 80 136 C90.17366292 129.04512309 100.54934072 126.77365942 112.6875 126.625 C113.47125 126.61098145 114.255 126.59696289 115.0625 126.58251953 C126.69298653 126.67781133 135.21679178 131.75476464 143.6875 139.4375 C144.450625 140.283125 145.21375 141.12875 146 142 C146.81210938 142.84111328 146.81210938 142.84111328 147.640625 143.69921875 C156.1023423 152.76797229 159.84276851 162.81468457 163.01953125 174.5703125 C163.64440181 177.80623896 163.64440181 177.80623896 165 179 C166.46329422 194.6663307 165.5901076 210.96873614 156 224 C155.58234375 224.67804688 155.1646875 225.35609375 154.734375 226.0546875 C151.71976391 230.92311116 148.22638843 235.16027304 144.375 239.375 C143.90755371 239.88708008 143.44010742 240.39916016 142.95849609 240.92675781 C137.79258103 246.46573612 137.79258103 246.46573612 135 248 C129.75242197 248.1275453 125.911577 244.20662985 122 241.125 C115.72933666 236.23033193 115.72933666 236.23033193 109 232 C110.11508316 228.65475051 110.81291942 228.15778307 113.5 226.0625 C119.21837208 221.24376331 124.63860862 214.72278277 128 208 C128.66 208 129.32 208 130 208 C130.185625 206.97132813 130.185625 206.97132813 130.375 205.921875 C131.07872713 202.63195065 132.01065011 199.46538713 133 196.25 C133.350625 195.10015625 133.70125 193.9503125 134.0625 192.765625 C135 190 135 190 136 189 C136.25722814 184.88175594 136.18525066 180.75029862 136.1875 176.625 C136.19974609 175.48160156 136.21199219 174.33820313 136.22460938 173.16015625 C136.49157501 162.35413519 136.49157501 162.35413519 134 152 C131.63484575 150.6828415 131.63484575 150.6828415 129 150 C128.01 149.67 127.02 149.34 126 149 C110.36035533 147.73278777 100.4363492 150.70652941 88.25390625 160.9921875 C76.46502598 171.49389366 72.7442555 181.45311092 71.81304932 197.15167236 C71.46551023 205.61905775 71.38854062 214.08916828 71.3125 222.5625 C71.279258 225.13478226 71.24476223 227.70704864 71.20898438 230.27929688 C71.12487929 236.51942197 71.05620797 242.75956446 71 249 C67.19458802 248.30875327 64.47617176 247.32724025 61.125 245.375 C54.2539867 241.58893145 47.10907107 238.3175665 40 235 C40 195.4 40 155.8 40 115 C17.56 115 -4.88 115 -28 115 C-28 119.29 -28 123.58 -28 128 C-27.071875 127.360625 -26.14375 126.72125 -25.1875 126.0625 C-20.46204532 123.00485285 -16.52180589 122.55284811 -11 123 C-7.5 124 -7.5 124 -5 125 C-5 125.66 -5 126.32 -5 127 C-4.319375 127.185625 -3.63875 127.37125 -2.9375 127.5625 C1.53665576 129.75198048 5.74434347 133.48868694 8 138 C8.06950541 139.54023996 8.08452357 141.08334988 8.0625 142.625 C8.05347656 143.44226563 8.04445313 144.25953125 8.03515625 145.1015625 C8.01775391 146.04128906 8.01775391 146.04128906 8 147 C7.34 147 6.68 147 6 147 C5.76023437 147.55429688 5.52046875 148.10859375 5.2734375 148.6796875 C3.71155828 151.52556558 1.79394296 153.71106016 -0.375 156.125 C-1.14585937 156.99382812 -1.91671875 157.86265625 -2.7109375 158.7578125 C-5 161 -5 161 -9 163 C-12.3 158.38 -15.6 153.76 -19 149 C-20.65 149.66 -22.3 150.32 -24 151 C-22.83207009 153.53051481 -21.67355624 155.39365277 -19.875 157.5625 C-16.93833516 162.94638554 -16.9847957 168.35795459 -18.625 174.2421875 C-21.95976633 181.89428524 -28.20297765 186.44453655 -35.6875 189.6875 C-37.7825124 190.48287692 -39.88693487 191.2539054 -42 192 C-42.94101562 192.34804687 -43.88203125 192.69609375 -44.8515625 193.0546875 C-59.75722946 198.12812032 -75.87734656 200.03179767 -91.50390625 201.41015625 C-95.16928663 202.02856121 -97.75213723 203.24014484 -101 205 C-101.66 205 -102.32 205 -103 205 C-104.51958573 209.74870541 -104.75211814 214.27012828 -102.75 218.875 C-101.21494783 221.04192256 -101.21494783 221.04192256 -99.3125 221.8125 C-91.61507905 222.43661521 -85.99885095 221.37966431 -78.75 218.8125 C-77.81978027 218.49297363 -76.88956055 218.17344727 -75.93115234 217.84423828 C-70.15270856 215.83473933 -64.5000671 213.6218194 -58.88671875 211.1875 C-53.04193359 208.78314995 -47.02062986 206.9064236 -41 205 C-40.05253906 204.67644531 -39.10507812 204.35289062 -38.12890625 204.01953125 C-27.64949586 200.70286793 -15.08547939 200.10481035 -5 205 C9.04398666 213.77459001 18.34164499 228.97480186 22.3671875 244.859375 C24.29593239 255.66254436 25.58552986 269.69208329 20.3125 279.625 C18.65625 282 18.65625 282 17 284 C16.5359375 284.639375 16.071875 285.27875 15.59375 285.9375 C13.53346948 288.6510402 12.27969795 289.90676735 9 291 C-2.64070231 292.0203006 -11.45063565 291.3349225 -21.76953125 285.73828125 C-24.47689566 284.28147694 -26.88539965 283.24853257 -29.8125 282.375 C-32.90968383 281.43213038 -35.58538607 280.21990697 -38.4375 278.6875 C-43.22479574 276.20715307 -48.14770055 274.45213821 -53.25 272.75 C-54.01884521 272.49178467 -54.78769043 272.23356934 -55.57983398 271.9675293 C-78.88814106 264.36682931 -102.15374429 269.7012247 -123.390625 280.48828125 C-138.66496082 288.60796479 -157.03470359 301.06940718 -165 317 C-165.99 317 -166.98 317 -168 317 C-168.31962169 308.67799823 -168.23442628 301.71529001 -165 294 C-164.608125 292.824375 -164.21625 291.64875 -163.8125 290.4375 C-163.544375 289.633125 -163.27625 288.82875 -163 288 C-162.34 288 -161.68 288 -161 288 C-160.90460938 287.11699219 -160.80921875 286.23398437 -160.7109375 285.32421875 C-158.05470798 272.90415656 -144.30216336 261.7861795 -134 255.0625 C-128.286152 251.47256225 -122.47544978 248.87934106 -116 247 C-114.94425781 246.64550781 -113.88851563 246.29101562 -112.80078125 245.92578125 C-108.16583263 244.79681637 -103.87837178 244.61712801 -99.125 244.625 C-97.75637817 244.6252417 -97.75637817 244.6252417 -96.36010742 244.62548828 C-88.31112809 244.75839052 -75.01449652 244.98550348 -69 251 C-67.35444726 251.73660722 -65.68404635 252.41874391 -64 253.0625 C-59.10126582 254.94936709 -59.10126582 254.94936709 -57 256 C-57 256.66 -57 257.32 -57 258 C-55.8553125 258.309375 -55.8553125 258.309375 -54.6875 258.625 C-50.41884974 260.2167001 -46.64007645 262.33916914 -42.6640625 264.546875 C-39.50601411 266.26944685 -36.3616125 267.71647523 -33 269 C-32.2884375 269.2784375 -31.576875 269.556875 -30.84375 269.84375 C-22.2860653 272.84449658 -12.28532443 274.06675661 -3.875 270.0625 C0.7510278 267.07019949 2.32303617 263.08080113 4 258 C4.33 257.34 4.66 256.68 5 256 C6.20595809 240.87124596 6.20595809 240.87124596 0.64453125 227.33984375 C-4.4237699 223.21056276 -12.83219923 224.77859457 -18.90625 225.203125 C-33.88465872 226.97891572 -48.18590857 233.45533122 -61.90869141 239.42236328 C-62.65038574 239.74446777 -63.39208008 240.06657227 -64.15625 240.3984375 C-64.80400391 240.68380371 -65.45175781 240.96916992 -66.11914062 241.26318359 C-73.61589735 244.19999717 -85.09902977 244.70802385 -92.5625 241.5625 C-94.06289312 240.74619417 -95.53912651 239.88508947 -97 239 C-98.17337881 238.34697723 -99.34797137 237.69613299 -100.5234375 237.046875 C-111.65679032 230.7717125 -123.15801501 223.41826738 -128 211 C-128.79120368 206.43894352 -128.64269331 202.62563603 -126.9375 198.3125 C-122.14782805 192.59579476 -118.14547138 188.47904109 -111 186 C-112.82967117 182.11084389 -115.20047816 178.73085759 -117.66015625 175.21875 C-121.95598147 168.10496363 -120.75711229 157.1853635 -118.9296875 149.375 C-115.34395969 140.21482138 -106.49196843 135.03132903 -98 131 C-81.25358509 124.40171197 -67.58766866 124.68088813 -51 131 C-51 125.72 -51 120.44 -51 115 C-91.92 115 -132.84 115 -175 115 C-174.67 125.56 -174.34 136.12 -174 147 C-171.36 148.98 -168.72 150.96 -166 153 C-155.5236715 162.90175839 -149.46677104 177.24947385 -148.6171875 191.59765625 C-148.44334772 198.71053697 -149.09223107 205.12743483 -151 212 C-151.66 212 -152.32 212 -153 212 C-153.185625 212.969375 -153.37125 213.93875 -153.5625 214.9375 C-156.72910991 225.92098614 -168.04349353 235.35223488 -177.6171875 240.75390625 C-193.1765213 248.89067261 -210.79293123 249.54258622 -227.5625 244.5 C-246.94866316 238.19578861 -265.93757088 225.169895 -275.44262695 206.76782227 C-277.03551513 203.53975033 -278.54305118 200.29241865 -280 197 C-280.39445313 196.195625 -280.78890625 195.39125 -281.1953125 194.5625 C-283.95203708 185.78380425 -283.02933488 173.83751984 -279.3828125 165.51171875 C-270.57192576 149.50776346 -257.66339701 139.79022625 -240.6796875 133.8359375 C-226.5504456 130.04689268 -212.72235247 131.42588251 -199 136 C-199 129.07 -199 122.14 -199 115 C-277.21 115 -355.42 115 -436 115 C-436 108.07 -436 101.14 -436 94 C-278.92 94 -121.84 94 40 94 C39.30823544 77.05785716 39.30823544 77.05785716 36 61 C35.67 59.741875 35.34 58.48375 35 57.1875 C33.81048755 53.39592907 32.45312165 49.69598333 31 46 C30.66226562 45.09121094 30.32453125 44.18242188 29.9765625 43.24609375 C24.83547248 30.01382514 16.89471224 20.42001167 7.171875 10.34765625 C0 2.8653379 0 2.8653379 0 0 Z " fill="#050505" transform="translate(446,7)"/>
<path d="M0 0 C12.57949337 11.02534085 12.57949337 11.02534085 13.68359375 18.30078125 C13.91363567 27.58364939 11.08864002 34.15915555 4.8125 40.98046875 C-1.25104716 46.66287866 -11.46600167 54.7533095 -20.06640625 54.89453125 C-24.12519741 53.28553207 -26.64663741 50.35310079 -29.625 47.23046875 C-30.21990234 46.62589844 -30.81480469 46.02132812 -31.42773438 45.3984375 C-33.20755634 43.57387684 -34.95433732 41.72436399 -36.6875 39.85546875 C-37.56752686 38.90655762 -37.56752686 38.90655762 -38.46533203 37.93847656 C-39.28880127 37.01953613 -39.28880127 37.01953613 -40.12890625 36.08203125 C-40.62205322 35.53369629 -41.1152002 34.98536133 -41.62329102 34.42041016 C-42.6875 32.85546875 -42.6875 32.85546875 -42.6875 29.85546875 C-41.841875 29.55253906 -40.99625 29.24960938 -40.125 28.9375 C-33.42749483 26.46398957 -27.63524889 23.78322745 -21.6875 19.85546875 C-21.0275 19.85546875 -20.3675 19.85546875 -19.6875 19.85546875 C-19.1925 18.37046875 -19.1925 18.37046875 -18.6875 16.85546875 C-17.6975 16.36046875 -17.6975 16.36046875 -16.6875 15.85546875 C-16.03801501 10.65958881 -16.27754568 7.64015258 -19.4375 3.35546875 C-22.687805 -0.00714354 -25.0425012 -0.70948731 -29.6875 -0.83203125 C-43.72727137 0.24661289 -53.5691888 10.88398223 -62.6875 20.85546875 C-68.79856669 28.03630642 -72.01458187 35.88509953 -74.6875 44.85546875 C-75.02434814 45.94029541 -75.36119629 47.02512207 -75.70825195 48.14282227 C-77.21954255 54.26393175 -77.04458 60.49115932 -77.1015625 66.76171875 C-77.12030442 68.09551145 -77.13988001 69.42929266 -77.1602478 70.76306152 C-77.21125622 74.24814032 -77.25104774 77.73325743 -77.28839111 81.21850586 C-77.32862874 84.7850874 -77.3796302 88.35151391 -77.4296875 91.91796875 C-77.52607536 98.89702172 -77.61059713 105.87617458 -77.6875 112.85546875 C-81.74295908 112.24444347 -84.67718411 111.56104204 -88.1875 109.41796875 C-91.60964213 107.41448114 -94.84856809 105.93824442 -98.6875 104.85546875 C-98.6875 104.19546875 -98.6875 103.53546875 -98.6875 102.85546875 C-99.39777344 102.65050781 -100.10804687 102.44554687 -100.83984375 102.234375 C-101.75894531 101.96496094 -102.67804688 101.69554687 -103.625 101.41796875 C-104.54152344 101.15113281 -105.45804688 100.88429688 -106.40234375 100.609375 C-108.6875 99.85546875 -108.6875 99.85546875 -109.6875 98.85546875 C-109.78277037 97.51474058 -109.8093877 96.16904372 -109.80775452 94.82493591 C-109.80912918 93.95690338 -109.81050385 93.08887085 -109.81192017 92.1945343 C-109.80832489 91.23500351 -109.80472961 90.27547272 -109.80102539 89.28686523 C-109.80117142 88.28210144 -109.80131744 87.27733765 -109.8014679 86.24212646 C-109.8007683 82.90358358 -109.79297374 79.5650957 -109.78515625 76.2265625 C-109.78329224 73.91870657 -109.78186826 71.61085024 -109.78086853 69.30299377 C-109.77704204 63.21529049 -109.76721065 57.12761089 -109.75616455 51.03991699 C-109.74595323 44.83325521 -109.74137151 38.62658962 -109.73632812 32.41992188 C-109.7255885 20.23175873 -109.70799064 8.04361941 -109.6875 -4.14453125 C-99.1275 -4.14453125 -88.5675 -4.14453125 -77.6875 -4.14453125 C-77.6875 -2.16453125 -77.6875 -0.18453125 -77.6875 1.85546875 C-77.12804687 1.48035156 -76.56859375 1.10523438 -75.9921875 0.71875 C-53.86014486 -13.40732866 -21.72443925 -17.33534469 0 0 Z " fill="#040404" transform="translate(135.6875,146.14453125)"/>
<path d="M0 0 C0 0.66 0 1.32 0 2 C0.70125 2.185625 1.4025 2.37125 2.125 2.5625 C7.27698914 5.13849457 10.12959793 9.37925132 12.8125 14.375 C14.21067928 18.64312621 14.74401628 22.53534284 15 27 C15.06445312 27.73347656 15.12890625 28.46695313 15.1953125 29.22265625 C15.74696519 39.64889205 10.36941342 48.13715699 4 56 C1.42824568 58.77443198 -1.22992974 61.42419441 -4 64 C-7.91544204 62.69485265 -8.49817809 61.07995426 -10.6875 57.625 C-14.10490913 52.30832446 -17.74889474 47.27221678 -21.62890625 42.27734375 C-22.08136719 41.52582031 -22.53382813 40.77429688 -23 40 C-21.389961 35.169883 -17.05030152 33.28967451 -12.98046875 30.44921875 C-9.83702249 27.86607222 -7.96183295 25.5519997 -6 22 C-5.66475124 18.24870163 -5.66475124 18.24870163 -6 15 C-10.88091445 11.81246403 -13.99699081 10.14242726 -20 11 C-29.54698062 15.16595518 -36.54506359 23.5114045 -40.86047363 32.86508179 C-46.84050962 48.70290742 -45.78951681 66.17488365 -45.80688477 82.82684326 C-45.81634351 86.80332157 -45.85383316 90.7795368 -45.88867188 94.75585938 C-45.95257224 102.5039097 -45.98636377 110.25168035 -46 118 C-49.64923197 117.32564831 -52.51515147 116.40808736 -55.8125 114.6875 C-56.99779297 114.07455078 -56.99779297 114.07455078 -58.20703125 113.44921875 C-59.12871094 112.97097656 -60.05039062 112.49273437 -61 112 C-63.64 110.68 -66.28 109.36 -69 108 C-69 72.69 -69 37.38 -69 1 C-61.08 1 -53.16 1 -45 1 C-45 2.98 -45 4.96 -45 7 C-44.44054687 6.61328125 -43.88109375 6.2265625 -43.3046875 5.828125 C-30.11797086 -2.73688066 -14.81240087 -6.28404886 0 0 Z " fill="#050505" transform="translate(822,138)"/>
<path d="M0 0 C1.01642578 -0.04576172 2.03285156 -0.09152344 3.08007812 -0.13867188 C9.54025601 -0.23459446 13.3131753 0.59769648 18.22827148 4.88500977 C19.0124646 5.65349243 19.0124646 5.65349243 19.8125 6.4375 C20.83150391 7.43330078 20.83150391 7.43330078 21.87109375 8.44921875 C22.32613281 9.00222656 22.78117187 9.55523437 23.25 10.125 C23.95962891 10.96611328 23.95962891 10.96611328 24.68359375 11.82421875 C28.45004539 17.20672576 27.16795002 25.15788297 26.8125 31.4375 C26.24218807 34.42438792 25.27288912 36.78124507 23.8125 39.4375 C23.39871094 40.22382813 22.98492187 41.01015625 22.55859375 41.8203125 C13.7534734 57.51118091 -0.51283404 68.70084228 -17.48046875 74.578125 C-21.80506617 75.58066603 -25.76707862 75.76854204 -30.1875 75.75 C-30.95578125 75.76611328 -31.7240625 75.78222656 -32.515625 75.79882812 C-38.7996683 75.8041717 -43.56322138 74.77482046 -48.40234375 70.46484375 C-48.97082031 69.77519531 -49.53929687 69.08554688 -50.125 68.375 C-50.71152344 67.68277344 -51.29804688 66.99054688 -51.90234375 66.27734375 C-53.1875 64.4375 -53.1875 64.4375 -53.1875 62.4375 C-53.8475 62.4375 -54.5075 62.4375 -55.1875 62.4375 C-57.93544012 54.19367965 -56.66780539 44.30809889 -53.1875 36.4375 C-52.5275 35.7775 -51.8675 35.1175 -51.1875 34.4375 C-50.75566406 33.36371094 -50.32382813 32.28992188 -49.87890625 31.18359375 C-44.43181919 18.0172451 -29.41639335 8.00961426 -16.97265625 2.56640625 C-11.18497844 0.22048916 -6.18662827 0.11164419 0 0 Z " fill="#FAFAFA" transform="translate(245.1875,157.5625)"/>
<path d="M0 0 C0.83233154 0.00612305 1.66466309 0.01224609 2.5222168 0.01855469 C9.16172149 0.18652892 14.75399739 1.3375911 20.6875 4.4375 C21.33332031 4.76105469 21.97914063 5.08460938 22.64453125 5.41796875 C25.11773805 6.83702183 26.55212114 8.19381805 27.9375 10.6875 C27.42533517 16.32131313 23.39444274 19.97479827 19.2578125 23.51953125 C5.53656617 33.91983825 -8.159893 38.57485824 -25.3125 38.875 C-26.51434937 38.90859619 -26.51434937 38.90859619 -27.74047852 38.94287109 C-33.04513024 38.92167703 -36.12661768 37.98241909 -40.3125 34.4375 C-41.65434321 31.33448758 -41.31752621 29.47079863 -40.8125 26.125 C-36.57782122 15.714748 -25.50325869 7.31953708 -15.5456543 2.60009766 C-10.32777299 0.41381642 -5.62349473 -0.07061401 0 0 Z " fill="#F9F9F9" transform="translate(678.3125,193.5625)"/>
<path d="M0 0 C2.13829574 1.723937 3.65318433 3.48214991 4.8828125 5.94140625 C4.97836667 7.39720212 5.01265941 8.85748585 5.0078125 10.31640625 C5.01167969 11.47269531 5.01167969 11.47269531 5.015625 12.65234375 C4.88671038 14.87422515 4.49664967 16.80759133 3.8828125 18.94140625 C3.2228125 18.94140625 2.5628125 18.94140625 1.8828125 18.94140625 C1.63789063 19.82699219 1.39296875 20.71257812 1.140625 21.625 C-1.94125106 29.75081608 -9.38414854 36.22332719 -17.1171875 39.94140625 C-17.91511719 40.33199219 -18.71304687 40.72257812 -19.53515625 41.125 C-27.53806519 44.54130825 -36.97359973 45.9333545 -45.40625 43.19921875 C-47.0546875 42.12890625 -47.0546875 42.12890625 -49.1171875 38.94140625 C-50.28018129 32.4123183 -49.56872314 25.65732515 -46.1171875 19.94140625 C-36.81804384 7.54254804 -16.61968534 -8.30984267 0 0 Z " fill="#F7F7F7" transform="translate(398.1171875,150.05859375)"/>
<path d="M0 0 C7.26 0 14.52 0 22 0 C19.038701 1.97419933 17.47586427 2.45168745 14.0625 3.0625 C10.4376567 3.71718048 10.4376567 3.71718048 6.87109375 4.62109375 C5 5 5 5 2 4 C0.66636297 3.85596652 -0.67218046 3.75409577 -2.01171875 3.68359375 C-3.14770508 3.62075195 -3.14770508 3.62075195 -4.30664062 3.55664062 C-5.48516602 3.49766602 -5.48516602 3.49766602 -6.6875 3.4375 C-7.48478516 3.39431641 -8.28207031 3.35113281 -9.10351562 3.30664062 C-11.06881447 3.20072632 -13.03438496 3.09987449 -15 3 C-15 2.67 -15 2.34 -15 2 C-10.05 1.67 -5.1 1.34 0 1 C0 0.67 0 0.34 0 0 Z " fill="#B3B3B2" transform="translate(356,249)"/>
<path d="M0 0 C-1.65863505 4.32504836 -4.871041 7.09418825 -8.125 10.25 C-8.68832031 10.80429688 -9.25164062 11.35859375 -9.83203125 11.9296875 C-11.21686028 13.29104485 -12.60783204 14.64614859 -14 16 C-14.66 15.67 -15.32 15.34 -16 15 C-3.18181818 0 -3.18181818 0 0 0 Z " fill="#CECECE" transform="translate(87,154)"/>
<path d="M0 0 C-1.57973684 3.8288537 -4.02060457 6.28773759 -6.9375 9.1875 C-8.25041016 10.50814453 -8.25041016 10.50814453 -9.58984375 11.85546875 C-12 14 -12 14 -15 15 C-13.387672 10.96918 -10.53765404 8.24055863 -7.5 5.25 C-7.00113281 4.74339844 -6.50226563 4.23679687 -5.98828125 3.71484375 C-2.25341139 0 -2.25341139 0 0 0 Z " fill="#303030" transform="translate(307,267)"/>
<path d="M0 0 C-1.52524036 3.60286506 -3.67485437 5.94299983 -6.4375 8.6875 C-7.21996094 9.47511719 -8.00242187 10.26273437 -8.80859375 11.07421875 C-11 13 -11 13 -14 14 C-12.41438362 10.14406926 -9.93490046 7.66783709 -7 4.75 C-6.113125 3.85796875 -5.22625 2.9659375 -4.3125 2.046875 C-2 0 -2 0 0 0 Z " fill="#C6C6C5" transform="translate(299,304)"/>
<path d="M0 0 C-1.58667578 3.90285767 -4.13350481 6.33520982 -7.125 9.25 C-8.03507813 10.14203125 -8.94515625 11.0340625 -9.8828125 11.953125 C-10.58148438 12.62859375 -11.28015625 13.3040625 -12 14 C-12.66 13.67 -13.32 13.34 -14 13 C-2.80645161 0 -2.80645161 0 0 0 Z " fill="#D1D1D2" transform="translate(213,170)"/>
<path d="M0 0 C-1.53218685 3.63061667 -3.7183144 5.9863773 -6.5 8.75 C-7.69109375 9.94882813 -7.69109375 9.94882813 -8.90625 11.171875 C-11 13 -11 13 -13 13 C-11.46781315 9.36938333 -9.2816856 7.0136227 -6.5 4.25 C-5.7059375 3.45078125 -4.911875 2.6515625 -4.09375 1.828125 C-2 0 -2 0 0 0 Z " fill="#D3D3D3" transform="translate(537,166)"/>
<path d="M0 0 C0.66 0.33 1.32 0.66 2 1 C0.04761147 3.00612399 -1.91137822 5.00492433 -3.875 7 C-4.43058594 7.57234375 -4.98617187 8.1446875 -5.55859375 8.734375 C-7.00134404 10.19450782 -8.4974374 11.60149298 -10 13 C-10.66 13 -11.32 13 -12 13 C-10.44997253 9.11602311 -7.99523379 6.97020381 -4.875 4.25 C-3.96492187 3.45078125 -3.05484375 2.6515625 -2.1171875 1.828125 C-1.06917969 0.92320312 -1.06917969 0.92320312 0 0 Z " fill="#3A3A3A" transform="translate(186,150)"/>
<path d="M0 0 C-1.46966358 3.39859703 -3.38037514 5.64963709 -6 8.25 C-6.70125 8.95640625 -7.4025 9.6628125 -8.125 10.390625 C-10 12 -10 12 -12 12 C-10.53033642 8.60140297 -8.61962486 6.35036291 -6 3.75 C-5.29875 3.04359375 -4.5975 2.3371875 -3.875 1.609375 C-2 0 -2 0 0 0 Z " fill="#D7D7D7" transform="translate(798,151)"/>
<path d="M0 0 C-1.53643852 3.68069887 -3.78150945 5.98775204 -6.625 8.75 C-7.85089844 9.94882813 -7.85089844 9.94882813 -9.1015625 11.171875 C-9.72804688 11.77515625 -10.35453125 12.3784375 -11 13 C-11 8.89253434 -9.36039564 7.80245139 -6.625 4.8125 C-5.81289063 3.91144531 -5.00078125 3.01039063 -4.1640625 2.08203125 C-2 0 -2 0 0 0 Z " fill="#393939" transform="translate(640,187)"/>
<path d="M0 0 C-1.44781793 3.44428265 -3.27694609 5.36130962 -6.125 7.75 C-7.21167969 8.67039063 -7.21167969 8.67039063 -8.3203125 9.609375 C-8.87460937 10.06828125 -9.42890625 10.5271875 -10 11 C-10 8 -10 8 -8.3203125 5.95703125 C-7.23363281 4.89548828 -7.23363281 4.89548828 -6.125 3.8125 C-5.40570312 3.09707031 -4.68640625 2.38164062 -3.9453125 1.64453125 C-2 0 -2 0 0 0 Z " fill="#C6C6C6" transform="translate(651,205)"/>
<path d="M0 0 C0.66 0.33 1.32 0.66 2 1 C0.92492371 2.29854721 -0.16043736 3.58858361 -1.25 4.875 C-1.85328125 5.59429687 -2.4565625 6.31359375 -3.078125 7.0546875 C-4.97087634 8.97052118 -6.53657727 9.96449045 -9 11 C-7.59155282 7.78475695 -5.89655214 5.67816132 -3.375 3.25 C-2.74335938 2.63640625 -2.11171875 2.0228125 -1.4609375 1.390625 C-0.73777344 0.70226562 -0.73777344 0.70226562 0 0 Z " fill="#2C2C2C" transform="translate(328,196)"/>
<path d="M0 0 C-1.59092052 4.13639336 -4.60474918 7.23213248 -8 10 C-8.66 10 -9.32 10 -10 10 C-8.50006099 6.10015857 -4.53875449 0 0 0 Z " fill="#D1D1D1" transform="translate(364,159)"/>
<path d="M0 0 C0.66 0.33 1.32 0.66 2 1 C0.38405168 3.04119788 -1.2856382 5.04072937 -3 7 C-3.66 7 -4.32 7 -5 7 C-3.70700306 4.11562221 -2.34058637 2.12780579 0 0 Z " fill="#404040" transform="translate(336,145)"/>
</svg>
